<?xml version="1.0" standalone="no"?>
<!DOCTYPE svg PUBLIC "-//W3C//DTD SVG 20010904//EN"
 "http://www.w3.org/TR/2001/REC-SVG-20010904/DTD/svg10.dtd">
<svg version="1.0" xmlns="http://www.w3.org/2000/svg"
 width="260.000000pt" height="260.000000pt" viewBox="0 0 260.000000 260.000000"
 preserveAspectRatio="xMidYMid meet">
<metadata>
Created by potrace 1.11, written by Peter Selinger 2001-2013
</metadata>
<g transform="translate(0.000000,260.000000) scale(0.100000,-0.100000)"
fill="#000000" stroke="none">
<path d="M1189 2426 c-5 -5 -96 -19 -131 -20 -14 -1 -24 -4 -22 -7 2 -4 -13
-10 -34 -14 -20 -4 -43 -11 -49 -17 -7 -6 -13 -8 -13 -5 0 3 -20 -3 -45 -14
-25 -11 -50 -17 -55 -14 -6 4 -9 1 -8 -7 2 -7 -7 -14 -19 -16 -13 -2 -23 -7
-23 -11 0 -12 -50 -32 -62 -25 -6 4 -8 2 -5 -3 6 -9 -69 -68 -122 -97 -9 -5
-28 -24 -41 -42 -14 -18 -34 -38 -46 -44 -11 -6 -29 -25 -38 -41 -11 -19 -23
-28 -32 -25 -8 3 -12 1 -9 -4 3 -5 -16 -42 -43 -82 -55 -81 -126 -226 -137
-275 -4 -18 -11 -33 -16 -33 -6 0 -8 -4 -5 -9 9 -15 -17 -120 -28 -114 -6 3
-6 0 1 -7 7 -7 8 -22 3 -39 -4 -14 -5 -36 -4 -49 2 -13 1 -21 -3 -19 -10 6 -7
-126 4 -203 4 -30 7 -71 7 -92 1 -20 4 -34 8 -32 5 3 8 -1 8 -9 0 -24 40 -139
71 -204 16 -34 29 -67 29 -72 0 -6 5 -11 10 -11 6 0 10 -7 10 -15 0 -8 4 -15
10 -15 5 0 12 -11 16 -25 3 -14 11 -25 17 -25 6 0 8 -3 4 -6 -3 -3 3 -14 14
-25 11 -11 17 -25 13 -31 -4 -6 -3 -8 3 -5 5 3 31 -20 59 -52 53 -62 183 -174
208 -179 9 -2 16 -7 16 -11 0 -4 29 -22 65 -41 35 -18 61 -38 58 -43 -3 -6 -1
-7 6 -3 16 10 53 -3 45 -16 -4 -7 -2 -8 5 -4 6 4 23 0 38 -9 14 -9 22 -12 19
-6 -5 8 -1 8 16 2 47 -19 63 -24 71 -23 4 1 7 -2 7 -8 0 -5 6 -7 14 -4 7 3 38
-1 67 -8 30 -8 64 -13 77 -12 12 1 22 -4 22 -10 0 -6 5 -4 10 4 5 8 10 11 10
5 0 -10 102 -11 161 -1 18 3 29 0 29 -7 0 -9 2 -9 8 -1 4 6 30 14 57 18 74 9
159 33 254 71 46 19 88 32 93 29 4 -3 11 2 14 10 3 9 29 29 58 45 28 17 65 41
81 55 16 14 33 23 37 20 5 -3 7 0 6 8 -2 7 5 12 14 12 10 -1 16 1 13 5 -2 4
25 35 60 69 36 34 62 62 59 62 -3 0 2 7 11 17 9 9 28 33 41 55 13 21 29 38 34
38 6 0 9 3 8 8 -2 4 18 50 44 102 44 90 58 122 63 145 2 6 8 30 16 55 16 58
17 65 25 125 4 28 9 54 12 59 3 5 5 48 4 94 -1 52 3 90 10 99 9 11 8 13 -1 11
-14 -3 -18 10 -24 82 -3 25 -7 52 -10 60 -4 8 -8 26 -9 40 -2 14 -6 30 -9 35
-3 6 -12 30 -19 55 -8 25 -31 78 -51 119 -21 41 -35 80 -32 85 3 6 2 8 -2 3
-10 -8 -86 103 -79 115 3 5 2 7 -3 6 -12 -4 -114 107 -106 115 3 4 1 7 -6 7
-11 0 -60 35 -112 80 -10 8 -25 21 -35 29 -29 25 -227 121 -261 127 -18 3 -33
9 -33 13 0 4 -14 8 -31 9 -18 1 -37 6 -43 9 -6 4 -20 9 -31 10 -11 2 -33 6
-50 9 -35 7 -310 16 -316 10z"/>
</g>
</svg>
